<svg xmlns="http://www.w3.org/2000/svg" width="64" height="64" viewBox="0 0 64 64" fill="none">
<path opacity="0.5" d="M30.6667 21.3333C30.6667 26.488 26.488 30.6667 21.3333 30.6667C16.1787 30.6667 12 26.488 12 21.3333C12 16.1787 16.1787 12 21.3333 12C26.488 12 30.6667 16.1787 30.6667 21.3333Z" fill="#C0C5FB"/>
<path opacity="0.5" fill-rule="evenodd" clip-rule="evenodd" d="M19.9999 3.3335C21.1045 3.3335 21.9999 4.22893 21.9999 5.3335V6.66683C21.9999 7.7714 21.1045 8.66683 19.9999 8.66683C18.8953 8.66683 17.9999 7.7714 17.9999 6.66683V5.3335C17.9999 4.22893 18.8953 3.3335 19.9999 3.3335ZM8.21553 8.21506C8.99658 7.43401 10.2629 7.43401 11.044 8.21506L11.6201 8.79122C12.4012 9.57227 12.4012 10.8386 11.6201 11.6197C10.8391 12.4007 9.57274 12.4007 8.79169 11.6197L8.21553 11.0435C7.43449 10.2624 7.43449 8.99611 8.21553 8.21506ZM31.7839 8.21544C32.565 8.99649 32.565 10.2628 31.7839 11.0439L31.2078 11.62C30.4267 12.4011 29.1604 12.4011 28.3793 11.62C27.5983 10.839 27.5983 9.57265 28.3793 8.7916L28.9555 8.21544C29.7365 7.43439 31.0029 7.43439 31.7839 8.21544ZM3.33325 20.0002C3.33325 18.8956 4.22868 18.0002 5.33325 18.0002H6.66659C7.77115 18.0002 8.66659 18.8956 8.66659 20.0002C8.66659 21.1047 7.77115 22.0002 6.66659 22.0002H5.33325C4.22868 22.0002 3.33325 21.1047 3.33325 20.0002ZM11.6201 28.3807C12.4012 29.1617 12.4012 30.4281 11.6201 31.2091L11.044 31.7853C10.2629 32.5663 8.99658 32.5663 8.21553 31.7853C7.43449 31.0042 7.43448 29.7379 8.21553 28.9568L8.79169 28.3807C9.57274 27.5996 10.8391 27.5996 11.6201 28.3807Z" fill="#C0C5FB"/>
<path d="M43.4285 58.6667C51.8443 58.6667 58.6666 51.9246 58.6666 43.6078C58.6666 37.0163 54.3812 31.414 48.4135 29.3733C47.5656 21.8499 41.1089 16 33.2698 16C24.854 16 18.0317 22.7421 18.0317 31.0588C18.0317 32.8983 18.3654 34.6608 18.9763 36.2903C18.2599 36.1513 17.5195 36.0784 16.7618 36.0784C10.45 36.0784 5.33325 41.135 5.33325 47.3725C5.33325 53.6101 10.45 58.6667 16.7618 58.6667H43.4285Z" fill="#C0C5FB"/>
</svg>